<?xml version="1.0" encoding="UTF-8" standalone="no"?>
<svg
   width="163.8"
   height="177.1"
   viewBox="0 0 163.79747 177.14992"
   version="1.1"
   id="svg5"
   sodipodi:docname="o-bar-dark-master.svg"
   inkscape:version="1.1.2 (0a00cf5339, 2022-02-04)"
   xmlns:inkscape="http://www.inkscape.org/namespaces/inkscape"
   xmlns:sodipodi="http://sodipodi.sourceforge.net/DTD/sodipodi-0.dtd"
   xmlns="http://www.w3.org/2000/svg"
   xmlns:svg="http://www.w3.org/2000/svg">
  <defs
     id="defs9" />
  <sodipodi:namedview
     id="namedview7"
     pagecolor="#ffffff"
     bordercolor="#666666"
     borderopacity="1.0"
     inkscape:pageshadow="2"
     inkscape:pageopacity="0.0"
     inkscape:pagecheckerboard="0"
     showgrid="false"
     fit-margin-top="0"
     fit-margin-left="0"
     fit-margin-right="0"
     fit-margin-bottom="0"
     inkscape:zoom="1"
     inkscape:cx="41"
     inkscape:cy="69"
     inkscape:window-width="1920"
     inkscape:window-height="1052"
     inkscape:window-x="1920"
     inkscape:window-y="0"
     inkscape:window-maximized="1"
     inkscape:current-layer="svg5" />
  <g
     id="cresent"
     transform="matrix(1,0,0,1,-23.6,-10.2)">
    <path
       style="fill: #238ad1; fill-rule: evenodd; stroke: none; fill-opacity: 1"
       d="M 185.7 89 c -0.6 -3 -1.2 -5.6 -2.1 -8.3 c 5 36.7 -18.9 71.6 -55.8 79.3 c -38.1 7.7 -75.3 -16.9 -83.3 -55.3 c -6.8 -32.2 9.7 -64.2 38.4 -78.1 c -40.8 11.8 -66.4 53.2 -57.6 95.5 c 9.2 44.7 52.6 73.1 96.8 63.9 c 44.3 -9.2 72.6 -52.6 63.5 -97 z m 0 0"
       id="path2" />
  </g>
  <text
     xml:space="preserve"
     style="fill: #586e75; stroke: none; stroke-width: 1.1; font-family: [object Object]; font-size: 157.4px; font-style: italic; font-weight: bold; font-variant: normal; font-stretch: normal; line-height: 1.25; -inkscape-font-specification: 'sans-serif Bold Italic'; letter-spacing: 0px; word-spacing: 0px; fill-opacity: 1"
     x="27.5"
     y="134.4"
     id="obar"
     transform="matrix(1,0,0,1,0,0)"><tspan
       sodipodi:role="line"
       id="tspan62501"
       x="27.481985"
       y="134.37238"
       style="stroke-width:1.07333">Ō</tspan></text>
</svg>
